<svg xmlns="http://www.w3.org/2000/svg" viewBox="0 0 960 720" role="img" aria-labelledby="grid-title grid-desc">
  <title id="grid-title">Courtyard House reference grid</title>
  <desc id="grid-desc">A quiet architectural reference grid establishing proportion for the courtyard house drawing.</desc>
  <g id="layer-grid" fill="none">
    <path d="M120 600H840M120 120V600M840 120V600" stroke="#d7d0c4" stroke-width="1"/>
    <path d="M200 120V600M280 120V600M360 120V600M440 120V600M520 120V600M600 120V600M680 120V600M760 120V600" stroke="#d7d0c4" stroke-opacity=".42" stroke-width="1"/>
    <path d="M120 180H840M120 240H840M120 300H840M120 360H840M120 420H840M120 480H840M120 540H840" stroke="#d7d0c4" stroke-opacity=".36" stroke-width="1"/>
    <path d="M280 120V600M520 120V600M760 120V600M120 240H840M120 420H840" stroke="#c7bdad" stroke-opacity=".7" stroke-width="1.25"/>
    <circle cx="280" cy="240" r="3" fill="#8a8174"/>
    <circle cx="520" cy="420" r="3" fill="#8a8174"/>
    <circle cx="760" cy="240" r="3" fill="#8a8174"/>
  </g>
</svg>
