<svg xmlns="http://www.w3.org/2000/svg" viewBox="0 0 960 720" role="img" aria-labelledby="site-title site-desc">
  <title id="site-title">Courtyard House site boundary</title>
  <desc id="site-desc">A restrained site boundary with courtyard orientation marks and landscape edges.</desc>
  <g id="layer-site" fill="none">
    <path d="M190 168H792V556H190Z" stroke="#6f675d" stroke-width="2"/>
    <path d="M230 206H746V520H230Z" stroke="#8a8174" stroke-dasharray="9 12" stroke-opacity=".72" stroke-width="1.5"/>
    <path d="M206 526C248 492 298 508 348 474C398 440 458 462 516 420C574 378 636 394 718 338" stroke="#8a8174" stroke-dasharray="5 13" stroke-opacity=".72" stroke-width="1.35"/>
    <path d="M752 148L782 196M782 196L734 190" stroke="#ba9c66" stroke-linecap="round" stroke-width="2"/>
    <text x="718" y="140" fill="#8a8174" font-family="Inter, Arial, sans-serif" font-size="20" letter-spacing="4">N</text>
    <path d="M146 390C186 366 218 370 252 346M710 568C746 538 788 536 824 500" stroke="#c7bdad" stroke-linecap="round" stroke-width="2"/>
    <circle cx="332" cy="472" r="4" fill="#ba9c66"/>
    <circle cx="516" cy="420" r="4" fill="#ba9c66"/>
  </g>
</svg>
